<svg xmlns="http://www.w3.org/2000/svg" width="16" height="16" viewBox="0 0 16 16" fill="none">
  <g clip-path="url(#clip0_706_8332)">
    <path d="M13.9431 12.2196H11.2922V14.1158C11.2922 15.2196 10.1395 15.9997 9.03569 15.9997H2.01105C1.47892 15.9982 0.969011 15.7861 0.592739 15.4098C0.216467 15.0336 0.00441955 14.5237 0.00292969 13.9915V6.9669C0.00292969 5.86309 0.778322 4.70565 1.88213 4.70565H3.75286V2.05388C3.75286 0.926549 4.67787 0.00341797 5.80802 0.00341797H13.9431C15.0742 0.00341797 15.9992 0.926549 15.9992 2.05388V10.1701C15.9967 10.714 15.779 11.2349 15.3938 11.6189C15.0086 12.0029 14.487 12.2189 13.9431 12.2196ZM3.82155 10.6679C3.80372 10.5938 3.79021 10.5187 3.78109 10.443C3.7792 10.4101 3.76415 10.3846 3.76415 10.3517V10.2793C3.76227 10.2426 3.75286 10.2068 3.75286 10.1701V5.64666H1.88213C1.27988 5.64666 1.00699 6.36465 1.00699 6.9669V13.9915C1.00699 14.5938 1.4088 14.9956 2.01105 14.9956H9.03569C9.63793 14.9956 10.3512 14.718 10.3512 14.1158V12.2337H5.64617C4.65717 12.2337 3.9627 11.592 3.82155 10.6679ZM14.9716 2.05388C14.9716 1.43846 14.5604 1.02912 13.9431 1.02912H5.80802C5.19166 1.02912 4.78044 1.43846 4.78044 2.05388V10.1701C4.78044 10.7846 5.19166 11.1949 5.80802 11.1949H13.9431C14.5604 11.1949 14.9716 10.7846 14.9716 10.1701V2.05388ZM10.3456 8.47345H9.40645V6.5952H7.52819V5.65607H9.40645V3.77781H10.3456V5.65607H12.2238V6.5952H10.3456V8.47345Z" fill="currentColor"/>
  </g>
  <defs>
    <clipPath id="clip0_706_8332">
      <rect width="16" height="16" fill="white"/>
    </clipPath>
  </defs>
</svg>
